# xmcd
#
# Track frame offsets: 
#        150
#        19504
#        44152
#        69549
#        92653
#        115114
#
# Disc length: 1906 seconds
#
# Revision: 0
# Processed by: cddbd v1.5.2PL0 Copyright (c) Steve Scherf et al.
# Submitted via: ExactAudioCopy v0.99pb5
#
DISCID=49077006
DTITLE=Still Pioneers - 01.28.1986
DYEAR=1900
DGENRE=
TTITLE0=Sail to the Sun
TTITLE1=The Gloria II
TTITLE2=Alexander
TTITLE3=Oishii
TTITLE4=To Seige To Conquer
TTITLE5=Offering
EXTD=
EXTT0=
EXTT1=
EXTT2=
EXTT3=
EXTT4=
EXTT5=
PLAYORDER=
